<svg id="visual" viewBox="0 0 900 600" width="900" height="600" xmlns="http://www.w3.org/2000/svg" xmlns:xlink="http://www.w3.org/1999/xlink" version="1.1"><rect x="0" y="0" width="900" height="600" fill="#222222"></rect><path d="M0 93L8.8 90.7C17.7 88.3 35.3 83.7 53 84.7C70.7 85.7 88.3 92.3 106 93.5C123.7 94.7 141.3 90.3 159 89.8C176.7 89.3 194.3 92.7 212 88.5C229.7 84.3 247.3 72.7 265 71.8C282.7 71 300.3 81 318 82.3C335.7 83.7 353.3 76.3 371 71.5C388.7 66.7 406.3 64.3 423.8 63C441.3 61.7 458.7 61.3 476.2 65.5C493.7 69.7 511.3 78.3 529 80C546.7 81.7 564.3 76.3 582 72.3C599.7 68.3 617.3 65.7 635 66.3C652.7 67 670.3 71 688 74.2C705.7 77.3 723.3 79.7 741 82.3C758.7 85 776.3 88 794 86.5C811.7 85 829.3 79 847 74.2C864.7 69.3 882.3 65.7 891.2 63.8L900 62L900 0L891.2 0C882.3 0 864.7 0 847 0C829.3 0 811.7 0 794 0C776.3 0 758.7 0 741 0C723.3 0 705.7 0 688 0C670.3 0 652.7 0 635 0C617.3 0 599.7 0 582 0C564.3 0 546.7 0 529 0C511.3 0 493.7 0 476.2 0C458.7 0 441.3 0 423.8 0C406.3 0 388.7 0 371 0C353.3 0 335.7 0 318 0C300.3 0 282.7 0 265 0C247.3 0 229.7 0 212 0C194.3 0 176.7 0 159 0C141.3 0 123.7 0 106 0C88.3 0 70.7 0 53 0C35.3 0 17.7 0 8.8 0L0 0Z" fill="#222222"></path><path d="M0 52L8.8 53.2C17.7 54.3 35.3 56.7 53 58.5C70.7 60.3 88.3 61.7 106 61.7C123.7 61.7 141.3 60.3 159 58.7C176.7 57 194.3 55 212 56.2C229.7 57.3 247.3 61.7 265 64C282.7 66.3 300.3 66.7 318 63.5C335.7 60.3 353.3 53.7 371 54.8C388.7 56 406.3 65 423.8 68.3C441.3 71.7 458.7 69.3 476.2 67C493.7 64.7 511.3 62.3 529 61.5C546.7 60.7 564.3 61.3 582 60.7C599.7 60 617.3 58 635 60.3C652.7 62.7 670.3 69.3 688 68.8C705.7 68.3 723.3 60.7 741 59.7C758.7 58.7 776.3 64.3 794 65.7C811.7 67 829.3 64 847 65.5C864.7 67 882.3 73 891.2 76L900 79L900 0L891.2 0C882.3 0 864.7 0 847 0C829.3 0 811.7 0 794 0C776.3 0 758.7 0 741 0C723.3 0 705.7 0 688 0C670.3 0 652.7 0 635 0C617.3 0 599.7 0 582 0C564.3 0 546.7 0 529 0C511.3 0 493.7 0 476.2 0C458.7 0 441.3 0 423.8 0C406.3 0 388.7 0 371 0C353.3 0 335.7 0 318 0C300.3 0 282.7 0 265 0C247.3 0 229.7 0 212 0C194.3 0 176.7 0 159 0C141.3 0 123.7 0 106 0C88.3 0 70.7 0 53 0C35.3 0 17.7 0 8.8 0L0 0Z" fill="#515151"></path><path d="M0 42L8.8 41.3C17.7 40.7 35.3 39.3 53 38.5C70.7 37.7 88.3 37.3 106 37C123.7 36.7 141.3 36.3 159 40.3C176.7 44.3 194.3 52.7 212 55C229.7 57.3 247.3 53.7 265 52.8C282.7 52 300.3 54 318 53.7C335.7 53.3 353.3 50.7 371 47C388.7 43.3 406.3 38.7 423.8 38.3C441.3 38 458.7 42 476.2 44.8C493.7 47.7 511.3 49.3 529 50.3C546.7 51.3 564.3 51.7 582 53.2C599.7 54.7 617.3 57.3 635 55.5C652.7 53.7 670.3 47.3 688 47C705.7 46.7 723.3 52.3 741 55.7C758.7 59 776.3 60 794 61C811.7 62 829.3 63 847 62.7C864.7 62.3 882.3 60.7 891.2 59.8L900 59L900 0L891.2 0C882.3 0 864.7 0 847 0C829.3 0 811.7 0 794 0C776.3 0 758.7 0 741 0C723.3 0 705.7 0 688 0C670.3 0 652.7 0 635 0C617.3 0 599.7 0 582 0C564.3 0 546.7 0 529 0C511.3 0 493.7 0 476.2 0C458.7 0 441.3 0 423.8 0C406.3 0 388.7 0 371 0C353.3 0 335.7 0 318 0C300.3 0 282.7 0 265 0C247.3 0 229.7 0 212 0C194.3 0 176.7 0 159 0C141.3 0 123.7 0 106 0C88.3 0 70.7 0 53 0C35.3 0 17.7 0 8.8 0L0 0Z" fill="#868686"></path><path d="M0 24L8.8 27.2C17.7 30.3 35.3 36.7 53 39.8C70.7 43 88.3 43 106 43.2C123.7 43.3 141.3 43.7 159 40.5C176.7 37.3 194.3 30.7 212 30C229.7 29.3 247.3 34.7 265 35.8C282.7 37 300.3 34 318 31.8C335.7 29.7 353.3 28.3 371 28.2C388.7 28 406.3 29 423.8 31.7C441.3 34.3 458.7 38.7 476.2 40C493.7 41.3 511.3 39.7 529 40C546.7 40.3 564.3 42.7 582 43.5C599.7 44.3 617.3 43.7 635 39.8C652.7 36 670.3 29 688 26.8C705.7 24.7 723.3 27.3 741 30.3C758.7 33.3 776.3 36.7 794 38.8C811.7 41 829.3 42 847 40.7C864.7 39.3 882.3 35.7 891.2 33.8L900 32L900 0L891.2 0C882.3 0 864.7 0 847 0C829.3 0 811.7 0 794 0C776.3 0 758.7 0 741 0C723.3 0 705.7 0 688 0C670.3 0 652.7 0 635 0C617.3 0 599.7 0 582 0C564.3 0 546.7 0 529 0C511.3 0 493.7 0 476.2 0C458.7 0 441.3 0 423.8 0C406.3 0 388.7 0 371 0C353.3 0 335.7 0 318 0C300.3 0 282.7 0 265 0C247.3 0 229.7 0 212 0C194.3 0 176.7 0 159 0C141.3 0 123.7 0 106 0C88.3 0 70.7 0 53 0C35.3 0 17.7 0 8.8 0L0 0Z" fill="#bebebe"></path><path d="M0 29L8.8 28.3C17.7 27.7 35.3 26.3 53 24.8C70.7 23.3 88.3 21.7 106 22.2C123.7 22.7 141.3 25.3 159 26.3C176.7 27.3 194.3 26.7 212 24.5C229.7 22.3 247.3 18.7 265 18.2C282.7 17.7 300.3 20.3 318 21C335.7 21.7 353.3 20.3 371 20.7C388.7 21 406.3 23 423.8 22.5C441.3 22 458.7 19 476.2 19.2C493.7 19.3 511.3 22.7 529 23.8C546.7 25 564.3 24 582 24.2C599.7 24.3 617.3 25.7 635 25C652.7 24.3 670.3 21.7 688 20.5C705.7 19.3 723.3 19.7 741 20.8C758.7 22 776.3 24 794 25C811.7 26 829.3 26 847 25.8C864.7 25.7 882.3 25.3 891.2 25.2L900 25L900 0L891.2 0C882.3 0 864.7 0 847 0C829.3 0 811.7 0 794 0C776.3 0 758.7 0 741 0C723.3 0 705.7 0 688 0C670.3 0 652.7 0 635 0C617.3 0 599.7 0 582 0C564.3 0 546.7 0 529 0C511.3 0 493.7 0 476.2 0C458.7 0 441.3 0 423.8 0C406.3 0 388.7 0 371 0C353.3 0 335.7 0 318 0C300.3 0 282.7 0 265 0C247.3 0 229.7 0 212 0C194.3 0 176.7 0 159 0C141.3 0 123.7 0 106 0C88.3 0 70.7 0 53 0C35.3 0 17.7 0 8.8 0L0 0Z" fill="#fafafa"></path></svg>